<svg xmlns="http://www.w3.org/2000/svg" xmlns:xlink="http://www.w3.org/1999/xlink" xmlns:lucid="lucid" width="760" height="185.22"><g transform="translate(-380 -300)" lucid:page-tab-id="0_0"><path d="M400 328c0-4.42 3.58-8 8-8h84c4.42 0 8 3.58 8 8v44c0 4.42-3.58 8-8 8h-84c-4.42 0-8-3.58-8-8z" stroke="#000" stroke-opacity="0" fill="#fff" fill-opacity="0"/><use xlink:href="#a" transform="matrix(1,0,0,1,405,325) translate(5.211111111111109 18.91111111111111)"/><use xlink:href="#b" transform="matrix(1,0,0,1,405,325) translate(-1.2333333333333414 41.13333333333333)"/><path d="M620 350c0 11.05-8.95 20-20 20s-20-8.95-20-20 8.95-20 20-20 20 8.95 20 20zM680 350c0 11.05-8.95 20-20 20s-20-8.95-20-20 8.95-20 20-20 20 8.95 20 20zM740 350c0 11.05-8.95 20-20 20s-20-8.95-20-20 8.95-20 20-20 20 8.95 20 20z" stroke="#333" stroke-width="2" fill="#fff"/><path d="M501 350h59.5" stroke="#333" stroke-width="2" fill="none"/><path d="M501.03 351H500v-2h1.03z" fill="#333"/><path d="M575.76 350l-14.26 4.64v-9.28z" stroke="#333" stroke-width="2" fill="#333"/><path d="M916 325c13.25 0 24 11.2 24 25s-10.75 25-24 25h-72c-13.25 0-24-11.2-24-25s10.75-25 24-25z" stroke="#333" stroke-width="2" fill="#fff"/><use xlink:href="#c" transform="matrix(1,0,0,1,825,330) translate(15.488888888888887 26.133333333333333)"/><path d="M800.5 350H742" stroke="#333" stroke-width="2" fill="none"/><path d="M815.76 350l-14.27 4.64v-9.28z" stroke="#333" stroke-width="2" fill="#333"/><path d="M742.03 351h-1.15l.12-.96-.03-1.04h1.06z" fill="#333"/><path d="M1020 328c0-4.42 3.58-8 8-8h84c4.42 0 8 3.58 8 8v44c0 4.42-3.58 8-8 8h-84c-4.42 0-8-3.58-8-8z" stroke="#000" stroke-opacity="0" fill="#fff" fill-opacity="0"/><use xlink:href="#a" transform="matrix(1,0,0,1,1025,325) translate(5.211111111111109 16.133333333333333)"/><use xlink:href="#d" transform="matrix(1,0,0,1,1025,325) translate(2.1555555555555515 38.355555555555554)"/><path d="M942 350h59.5" stroke="#333" stroke-width="2" fill="none"/><path d="M942.03 351h-1.12l.1-1-.08-1h1.1z" fill="#333"/><path d="M1016.76 350l-14.26 4.64v-9.28z" stroke="#333" stroke-width="2" fill="#333"/><path d="M520 428c0-4.42 3.58-8 8-8h264c4.42 0 8 3.58 8 8v12.33c0 4.42-3.58 8-8 8H528c-4.42 0-8-3.58-8-8z" stroke="#000" stroke-opacity="0" fill="#fff" fill-opacity="0"/><use xlink:href="#e" transform="matrix(1,0,0,1,525,425) translate(23.98888888888888 16.133333333333333)"/><use xlink:href="#f" transform="matrix(1,0,0,1,525,425) translate(109.12222222222222 16.133333333333333)"/><use xlink:href="#g" transform="matrix(1,0,0,1,525,425) translate(135 38.355555555555554)"/><path d="M669.75 405.23l.6-.42 4.14-2.4 8.72-4.1 22.3-9.7 4.13-2.4 2.67-1.88 1.9-1.58 1.42-1.4 1.1-1.26.85-1.2.67-1.12.54-1.1.44-1.1.33-1.08.24-1.1.15-1.17v-.2" stroke="#333" stroke-width="2" fill="none"/><path d="M661.78 417.3l4-14.46 7.73 5.1z" stroke="#333" stroke-width="2" fill="#333"/><path d="M719.96 371l1.04-.03v.78h-2v-.87z" fill="#333"/><defs><path fill="#333" d="M22-342c0-215 179-369 411-367 73 0 146 13 231 41-14 66-18 102-19 152h-31v-72c0-39-101-79-199-79-172 0-286 122-286 306 0 197 130 327 325 327 76 0 145-20 207-60l9 10-28 50C573 2 498 20 415 20 180 20 22-126 22-342" id="h"/><path fill="#333" d="M271 3C188-1 104-1 21 3v-30c57-8 83 16 83-75v-518c6-58-39-37-81-41v-28c79-12 112-20 156-37l9 8v616c-8 90 25 67 83 75V3" id="i"/><path fill="#333" d="M271 3C188-1 104-1 21 3v-30c57-8 83 16 83-75v-225c6-87-20-71-81-73v-28c53-6 105-20 156-41l9 4v363c-8 90 25 67 83 75V3zm-75-595c0 30-20 50-50 50s-50-20-50-50 20-50 51-50c29 0 49 21 49 50" id="j"/><path fill="#333" d="M365-6C195 68 26-26 26-219c0-104 35-163 115-213 144-90 337-3 305 188-105 20-208 13-327 14-1 125 64 197 175 197 43 0 66-9 130-47l13 10c-20 35-22 42-72 64zm-6-261c0-67-10-96-32-129-47-70-159-40-189 31-11 27-17 48-17 95 86 10 152 5 238 3" id="k"/><path fill="#333" d="M572 3c-54-4-108-4-162 0v-284c0-77-44-127-111-127-61 0-127 49-127 94v212c-8 90 25 67 82 75V3C171-1 89-1 6 3v-30c57-8 82 15 82-75v-225c6-87-20-71-81-73v-28c53-6 105-20 156-41l9 4v87c49-32 73-91 155-91 112 0 167 57 167 174v193c-7 89 22 67 78 75V3" id="l"/><path fill="#333" d="M319-436l-9 54H182v262c-5 80 63 82 114 50l13 17c-33 27-35 65-101 65C131 12 98-20 98-94v-288l-76 4v-21l78-35c0-53 2-101-4-149 31-10 61-23 85-38l12 11c-10 82-12 112-11 180" id="m"/><path fill="#333" d="M391-148C391-4 179 59 30-4c8-40 11-70 11-139h30C59-56 105-17 196-17c71 0 121-38 121-92 0-38-19-59-64-69-68-15-121-31-148-43-46-21-68-55-68-103 0-137 187-178 317-120-3 31-4 55-5 113h-28c9-69-42-105-118-105-61 0-96 28-96 78 0 46 27 66 109 82 88 17 121 28 147 54 20 20 28 43 28 74" id="n"/><g id="a"><use transform="matrix(0.022222222222222223,0,0,0.022222222222222223,0,0)" xlink:href="#h"/><use transform="matrix(0.022222222222222223,0,0,0.022222222222222223,15.755555555555556,0)" xlink:href="#i"/><use transform="matrix(0.022222222222222223,0,0,0.022222222222222223,22.22222222222222,0)" xlink:href="#j"/><use transform="matrix(0.022222222222222223,0,0,0.022222222222222223,28.68888888888889,0)" xlink:href="#k"/><use transform="matrix(0.022222222222222223,0,0,0.022222222222222223,39.333333333333336,0)" xlink:href="#l"/><use transform="matrix(0.022222222222222223,0,0,0.022222222222222223,52.266666666666666,0)" xlink:href="#m"/><use transform="matrix(0.022222222222222223,0,0,0.022222222222222223,59.51111111111111,0)" xlink:href="#k"/><use transform="matrix(0.022222222222222223,0,0,0.022222222222222223,70.15555555555557,0)" xlink:href="#n"/></g><path fill="#333" d="M586-172C576-75 572-43 565 0 350 9 272-5 65 3v-23c31-14 56-25 56-75v-474c8-107-28-85-99-93v-30c98 4 195 4 293 0v30c-71 8-99-14-99 93v522c72 18 306 3 304-10 10-5 27-87 34-115h32" id="o"/><path fill="#333" d="M55-289c0-148 226-237 343-138l142-4c9 21-15 35-21 53h-92c54 135-92 238-217 226-18 16-52 45-46 57 0 27 24 39 76 39h160c70 0 118 50 118 122 0 122-119 217-270 217-127 0-216-63-216-154 0-31 14-68 28-76l87-47C78-12 67-45 96-95l79-61c-74-8-120-59-120-133zm299-5c0-85-46-141-114-141-64 0-101 45-101 122s45 129 112 129c61 0 103-45 103-110zm85 396c0-65-39-88-152-88-69 0-97 3-113 10-40 18-66 58-66 103 0 74 60 125 147 125 105 0 184-64 184-150" id="p"/><path fill="#333" d="M471 3c-51-4-101-4-152 0l5-85L200 4C112 32 32-18 32-111c0-87 57-134 193-159l99-18c-3-91-42-128-136-128-46 0-57 7-77 54l-13 31-26-7v-65c46-29 107-66 174-66 116 0 158 53 158 199v183c-5 72 20 55 67 60V3zM324-124v-132c-76 11-131 25-156 40-30 19-50 54-50 91 0 43 35 80 75 80 39 0 102-38 131-79" id="q"/><path fill="#333" d="M305 4C139 41 35-62 35-216c0-85 36-160 94-188 49-24 97-64 164-65 35 0 63 8 119 32v-183c6-58-39-37-81-41v-28c79-12 112-20 156-37l9 8v616c-8 90 25 67 83 75V3c-56-4-112-4-168 0l5-92zm107-354c-16-37-98-72-146-72-90 0-144 64-144 173 0 119 63 204 151 204 47 0 93-33 124-78 22-33 11-162 15-227" id="r"/><path fill="#333" d="M514-237C514-87 404 20 250 20 121 20 32-76 32-217c0-149 101-252 247-252 137 0 235 97 235 232zm-93 37c0-136-68-236-160-236-88 0-136 65-136 185 0 142 66 238 164 238 81 0 132-72 132-187" id="s"/><g id="b"><use transform="matrix(0.022222222222222223,0,0,0.022222222222222223,0,0)" xlink:href="#o"/><use transform="matrix(0.022222222222222223,0,0,0.022222222222222223,13.577777777777778,0)" xlink:href="#i"/><use transform="matrix(0.022222222222222223,0,0,0.022222222222222223,20.044444444444444,0)" xlink:href="#k"/><use transform="matrix(0.022222222222222223,0,0,0.022222222222222223,30.68888888888889,0)" xlink:href="#p"/><use transform="matrix(0.022222222222222223,0,0,0.022222222222222223,42.711111111111116,0)" xlink:href="#q"/><use transform="matrix(0.022222222222222223,0,0,0.022222222222222223,53.82222222222222,0)" xlink:href="#l"/><use transform="matrix(0.022222222222222223,0,0,0.022222222222222223,66.75555555555556,0)" xlink:href="#r"/><use transform="matrix(0.022222222222222223,0,0,0.022222222222222223,80.33333333333334,0)" xlink:href="#s"/></g><path fill="#333" d="M503-230C503-85 377 20 203 20 145 20 87 7 30-18c8-57 9-90 7-153h32l8 67c5 41 83 80 163 80 104 0 179-65 179-155 0-38-12-66-38-88s-61-34-138-45c-97-13-143-29-177-60-29-27-42-63-42-112 0-131 108-225 257-225 55 0 100 10 180 42-10 54-14 88-14 141h-32c-7-57-1-94-53-118-28-13-64-23-103-23-88 0-151 60-151 144 0 77 43 110 165 126 112 15 154 28 189 61 28 26 41 59 41 106" id="t"/><path fill="#333" d="M374-458l-9 120h-21c-42-91-156-34-156 64v172c0 66 2 69 47 72l52 3V3C198-1 109-1 21 3v-30c57-8 83 16 83-75v-225c6-87-20-71-81-73v-28c53-6 105-20 156-41l9 4v103c41-48 97-139 186-96" id="u"/><path fill="#333" d="M539-431c-56 1-56 1-87 69L334-102c-20 45-35 76-41 109h-50L71-396c-10-38-27-33-65-35v-28c78 4 155 4 233 0v28l-49 2c-32 1-27 29-16 57L293-84c36-81 71-162 104-246 37-94 21-103-46-101v-28c63 4 125 4 188 0v28" id="v"/><path fill="#333" d="M413-46l-21 32c-10 15-85 34-137 34C121 20 26-75 26-210c0-88 37-159 107-202 102-63 180-80 280-22-9 36-14 77-14 123h-28l-7-61c-18-25-66-45-110-45-90 0-140 60-140 167C114-73 260 19 403-61" id="w"/><g id="c"><use transform="matrix(0.022222222222222223,0,0,0.022222222222222223,0,0)" xlink:href="#t"/><use transform="matrix(0.022222222222222223,0,0,0.022222222222222223,11.666666666666668,0)" xlink:href="#k"/><use transform="matrix(0.022222222222222223,0,0,0.022222222222222223,22.311111111111114,0)" xlink:href="#u"/><use transform="matrix(0.022222222222222223,0,0,0.022222222222222223,31.533333333333335,0)" xlink:href="#v"/><use transform="matrix(0.022222222222222223,0,0,0.022222222222222223,44.08888888888889,0)" xlink:href="#j"/><use transform="matrix(0.022222222222222223,0,0,0.022222222222222223,50.55555555555556,0)" xlink:href="#w"/><use transform="matrix(0.022222222222222223,0,0,0.022222222222222223,60.422222222222224,0)" xlink:href="#j"/><use transform="matrix(0.022222222222222223,0,0,0.022222222222222223,66.88888888888889,0)" xlink:href="#s"/></g><g id="d"><use transform="matrix(0.022222222222222223,0,0,0.022222222222222223,0,0)" xlink:href="#t"/><use transform="matrix(0.022222222222222223,0,0,0.022222222222222223,11.666666666666668,0)" xlink:href="#k"/><use transform="matrix(0.022222222222222223,0,0,0.022222222222222223,22.311111111111114,0)" xlink:href="#u"/><use transform="matrix(0.022222222222222223,0,0,0.022222222222222223,31.533333333333335,0)" xlink:href="#v"/><use transform="matrix(0.022222222222222223,0,0,0.022222222222222223,44.08888888888889,0)" xlink:href="#j"/><use transform="matrix(0.022222222222222223,0,0,0.022222222222222223,50.55555555555556,0)" xlink:href="#r"/><use transform="matrix(0.022222222222222223,0,0,0.022222222222222223,64.13333333333334,0)" xlink:href="#s"/><use transform="matrix(0.022222222222222223,0,0,0.022222222222222223,76.26666666666668,0)" xlink:href="#n"/></g><g id="e"><use transform="matrix(0.022222222222222223,0,0,0.022222222222222223,0,0)" xlink:href="#h"/><use transform="matrix(0.022222222222222223,0,0,0.022222222222222223,15.755555555555556,0)" xlink:href="#i"/><use transform="matrix(0.022222222222222223,0,0,0.022222222222222223,22.22222222222222,0)" xlink:href="#j"/><use transform="matrix(0.022222222222222223,0,0,0.022222222222222223,28.68888888888889,0)" xlink:href="#k"/><use transform="matrix(0.022222222222222223,0,0,0.022222222222222223,39.333333333333336,0)" xlink:href="#l"/><use transform="matrix(0.022222222222222223,0,0,0.022222222222222223,52.266666666666666,0)" xlink:href="#m"/><use transform="matrix(0.022222222222222223,0,0,0.022222222222222223,59.51111111111111,0)" xlink:href="#k"/><use transform="matrix(0.022222222222222223,0,0,0.022222222222222223,70.15555555555557,0)" xlink:href="#n"/></g><path fill="#333" d="M756 3c-88-4-177-4-266 0v-30c28-2 88-1 88-23 0-43-50-133-67-179H223c-17 39-64 149-63 173-8 25 55 27 85 29V3C168-1 91-1 15 3v-30c50-1 72-8 91-52 85-194 192-429 270-621h32l242 568C699-32 684-31 756-27V3zM493-269L367-567 240-269h253" id="x"/><path fill="#333" d="M508-270c0 73-33 159-79 188-59 37-90 94-186 94-53 0-89-10-129-36L74 12 58 6c17-200 0-415 8-626 2-58-39-37-81-41v-28c79-12 112-20 156-37l9 8v349c43-46 89-100 177-100 106 0 181 83 181 199zM284-404c-57 0-134 43-134 96v215c0 22 74 54 126 54 85 0 145-78 145-190 0-107-53-175-137-175" id="y"/><g id="f"><use transform="matrix(0.022222222222222223,0,0,0.022222222222222223,0,0)" xlink:href="#x"/><use transform="matrix(0.022222222222222223,0,0,0.022222222222222223,16.955555555555556,0)" xlink:href="#y"/><use transform="matrix(0.022222222222222223,0,0,0.022222222222222223,29.244444444444447,0)" xlink:href="#q"/><use transform="matrix(0.022222222222222223,0,0,0.022222222222222223,40.355555555555554,0)" xlink:href="#l"/><use transform="matrix(0.022222222222222223,0,0,0.022222222222222223,53.28888888888889,0)" xlink:href="#r"/><use transform="matrix(0.022222222222222223,0,0,0.022222222222222223,66.86666666666667,0)" xlink:href="#s"/><use transform="matrix(0.022222222222222223,0,0,0.022222222222222223,79.00000000000001,0)" xlink:href="#l"/><use transform="matrix(0.022222222222222223,0,0,0.022222222222222223,91.93333333333335,0)" xlink:href="#q"/><use transform="matrix(0.022222222222222223,0,0,0.022222222222222223,103.04444444444447,0)" xlink:href="#u"/><use transform="matrix(0.022222222222222223,0,0,0.022222222222222223,111.82222222222225,0)" xlink:href="#s"/><use transform="matrix(0.022222222222222223,0,0,0.022222222222222223,123.9555555555556,0)" xlink:href="#l"/></g></defs></g></svg>