<svg xmlns="http://www.w3.org/2000/svg" xmlns:xlink="http://www.w3.org/1999/xlink" xmlns:lucid="lucid" width="552.75" height="242"><g transform="translate(-280 -249)" lucid:page-tab-id="0_0"><path d="M484.16 437.23c-2.3 1.53-4.16.53-4.16-2.23V285c0-2.76 1.86-3.76 4.16-2.23l111.68 74.46c2.3 1.53 2.3 4 0 5.54z" stroke="#000" stroke-width="2" fill="#fff"/><path d="M599.35 360h61.14" stroke="#000" stroke-width="2" fill="none"/><path d="M599.38 361h-1.12l.2-2h.92z"/><path d="M675.76 360l-14.27 4.64v-9.28z" stroke="#000" stroke-width="2"/><path d="M480 360c0 5.8-4.48 10.5-10 10.5s-10-4.7-10-10.5 4.48-10.5 10-10.5 10 4.7 10 10.5z" stroke="#000" stroke-width="2" fill="#fff"/><use xlink:href="#a" transform="matrix(1,0,0,1,465,354.5) translate(2.1666666666666665 9.626666666666667)"/><path d="M480 311c0 5.52-4.48 10-10 10s-10-4.48-10-10 4.48-10 10-10 10 4.48 10 10z" stroke="#000" stroke-width="2" fill="#fff"/><use xlink:href="#b" transform="matrix(1,0,0,1,465,306) translate(0.9011111111111108 11.231111111111112)"/><path d="M341 360h99.5" stroke="#000" stroke-width="2" fill="none"/><path d="M341.03 361H340v-2h1.03z"/><path d="M455.76 360l-14.27 4.64v-9.28z" stroke="#000" stroke-width="2"/><path d="M560 345c0-2.76 2.24-5 5-5h30c2.76 0 5 2.24 5 5v30c0 2.76-2.24 5-5 5h-30c-2.76 0-5-2.24-5-5z" stroke="#000" stroke-opacity="0" stroke-width="2" fill="#fff" fill-opacity="0"/><use xlink:href="#c" transform="matrix(1,0,0,1,565,345) translate(0 19.482421875)"/><path d="M480 409c0 5.52-4.48 10-10 10s-10-4.48-10-10 4.48-10 10-10 10 4.48 10 10z" stroke="#000" stroke-width="2" fill="#fff"/><use xlink:href="#b" transform="matrix(1,0,0,1,465,404) translate(0.9011111111111108 11.231111111111112)"/><path d="M300 345c0-2.76 2.24-5 5-5h30c2.76 0 5 2.24 5 5v30c0 2.76-2.24 5-5 5h-30c-2.76 0-5-2.24-5-5z" stroke="#000" stroke-opacity="0" stroke-width="2" fill="#fff" fill-opacity="0"/><use xlink:href="#d" transform="matrix(1,0,0,1,305,345) translate(10.63259548611111 21.297743055555554)"/><path d="M703.96 454.63c-2.2 1.7-3.96.82-3.96-1.94V334c0-2.76 1.77-3.63 3.96-1.94l75.33 58.22c2.18 1.7 2.18 4.43 0 6.12z" stroke="#000" stroke-width="2" fill="#fff"/><path d="M620.16 361v94c0 2.76-2.24 5-5 5H424c-2.77 0-5-2.24-5-5v-41c0-2.76 2.23-5 5-5h16.5M620.16 361.03V360" stroke="#000" stroke-width="2" fill="none"/><path d="M455.76 409l-14.27 4.64v-9.28z" stroke="#000" stroke-width="2"/><path d="M700 429c0 5.52-4.48 10-10 10s-10-4.48-10-10 4.48-10 10-10 10 4.48 10 10z" stroke="#000" stroke-width="2" fill="#fff"/><use xlink:href="#b" transform="matrix(1,0,0,1,685,424) translate(0.9011111111111108 11.231111111111112)"/><path d="M391 360h4c2.76 0 5 2.24 5 5v110c0 2.76 2.24 5 5 5h230c2.76 0 5-2.24 5-5v-41c0-2.76 2.24-5 5-5h15.5M391.03 360H390" stroke="#000" stroke-width="2" fill="none"/><path d="M675.76 429l-14.27 4.64v-9.28z" stroke="#000" stroke-width="2"/><path d="M782.75 393.34h34c2.77 0 5-2.24 5-5V265c0-2.76-2.23-5-5-5H424c-2.77 0-5 2.24-5 5v41c0 2.76 2.23 5 5 5h16.5" stroke="#000" stroke-width="2" fill="none"/><path d="M782.78 394.34h-1l-.04-2h1.04z"/><path d="M455.76 311l-14.27 4.64v-9.28z" stroke="#000" stroke-width="2"/><path d="M740 378.34c0-2.76 2.24-5 5-5h30c2.76 0 5 2.24 5 5v30c0 2.76-2.24 5-5 5h-30c-2.76 0-5-2.24-5-5z" stroke="#000" stroke-opacity="0" stroke-width="2" fill="#fff" fill-opacity="0"/><use xlink:href="#e" transform="matrix(1,0,0,1,745,378.34270032006293) translate(10.77685546875 19.482421875)"/><path d="M700 360c0 5.8-4.48 10.5-10 10.5s-10-4.7-10-10.5 4.48-10.5 10-10.5 10 4.7 10 10.5z" stroke="#000" stroke-width="2" fill="#fff"/><use xlink:href="#a" transform="matrix(1,0,0,1,685,354.5) translate(2.1666666666666665 9.626666666666667)"/><path d="M580 325c0-2.76 2.24-5 5-5h10c2.76 0 5 2.24 5 5v10c0 2.76-2.24 5-5 5h-10c-2.76 0-5-2.24-5-5z" stroke="#000" stroke-opacity="0" stroke-width="2" fill="#fff" fill-opacity="0"/><use xlink:href="#f" transform="matrix(1,0,0,1,585,325) translate(-1.2700737847222232 13.595920138888891)"/><path d="M780 365c0-2.76 2.24-5 5-5h10c2.76 0 5 2.24 5 5v10c0 2.76-2.24 5-5 5h-10c-2.76 0-5-2.24-5-5z" stroke="#000" stroke-opacity="0" stroke-width="2" fill="#fff" fill-opacity="0"/><use xlink:href="#g" transform="matrix(1,0,0,1,785,365) translate(-0.047200520833333925 13.595920138888891)"/><defs><path d="M35-175v-72h350v72H35" id="h"/><use transform="matrix(0.013333333333333334,0,0,0.013333333333333334,0,0)" xlink:href="#h" id="a"/><path d="M247-131v-194H43v-33h204v-194h33v194h203v33H280v194h-33" id="i"/><use transform="matrix(0.015555555555555557,0,0,0.015555555555555557,0,0)" xlink:href="#i" id="b"/><path d="M535-1235c212-4 338 160 275 373-64 217-223 354-360 525-52 65-115 136-184 216h418c81-12 89-97 102-178l50 12L821 0H127L98-74c171-201 325-369 463-574 57-86 107-151 107-276 0-137-63-221-201-221-116 0-176 96-187 211-40 21-70 45-128 49l-27-30c18-150 138-236 259-289 49-21 100-31 151-31" id="j"/><use transform="matrix(0.0087890625,0,0,0.0087890625,0,0)" xlink:href="#j" id="c"/><path d="M579-646c37-99-17-228-128-174-115 56-180 180-224 308-12 36-18 73-21 108 139-55 237-96 323-171 27-24 42-49 50-71zm-61-283c157-36 268 72 226 228-42 154-187 215-329 287-57 29-127 57-208 87 12 102 51 186 115 233 18 12 37 18 55 18 144 0 224-74 319-145 13 5 26 29 31 41C613-85 528-4 380 33 225 72 123-22 88-142c-97-333 92-609 306-738 36-22 78-39 124-49" id="k"/><use transform="matrix(0.010850694444444444,0,0,0.010850694444444444,0,0)" xlink:href="#k" id="d"/><path d="M139-1075c140-43 293-108 414-170l37 35v1067c17 46 70 53 126 69 32 9 74 15 124 21V0H170v-53c105-14 192-24 257-67 10-6 13-16 13-23-2-285 6-579-3-859-2-69-96-49-164-42-31 3-69 11-113 20" id="l"/><use transform="matrix(0.0087890625,0,0,0.0087890625,0,0)" xlink:href="#l" id="e"/><path d="M215-1177c-40-24-90-38-145-40v-43c100 2 208-4 303 3 25 18 32 47 47 81l398 902c135-316 265-635 403-949 10-22 15-36 43-37h286v43c-49 1-97 18-135 36l10 1077c0 8 13 18 37 30s60 22 108 31V0h-455v-43c45-9 82-20 111-31s44-21 44-30l-9-936L823 0h-49L329-1033l-9 929c0 8 12 18 36 30s61 22 109 31V0H60v-43c46-9 82-20 107-31s38-21 38-30" id="m"/><use transform="matrix(0.007595486111111112,0,0,0.007595486111111112,0,0)" xlink:href="#m" id="f"/><path d="M195-1149c-39-38-85-58-145-68v-43c78 1 162-3 236 2 36 15 48 43 72 76l657 906v-879c0-8-11-18-33-31s-59-24-112-31v-43h410v43c-48 7-84 16-108 29s-37 24-37 33V30c-55-6-97-20-119-51L315-993v889c0 8 11 18 33 31s60 23 112 30V0H50v-43c49-6 86-15 110-28s35-24 35-33v-1045" id="n"/><use transform="matrix(0.007595486111111112,0,0,0.007595486111111112,0,0)" xlink:href="#n" id="g"/></defs></g></svg>