<svg xmlns="http://www.w3.org/2000/svg" xmlns:xlink="http://www.w3.org/1999/xlink" xmlns:lucid="lucid" width="431" height="200"><g transform="translate(-260 -260)" lucid:page-tab-id="0_0"><path d="M484.16 437.23c-2.3 1.53-4.16.53-4.16-2.23V285c0-2.76 1.86-3.76 4.16-2.23l111.68 74.46c2.3 1.53 2.3 4 0 5.54z" stroke="#000" stroke-width="2" fill="#fff"/><path d="M599.35 360H679" stroke="#000" stroke-width="2" fill="none"/><path d="M599.38 361h-1.12l.2-2h.92z"/><path d="M678.97 360H680" stroke="#000" stroke-width="2" fill="none"/><path d="M480 360c0 5.8-4.48 10.5-10 10.5s-10-4.7-10-10.5 4.48-10.5 10-10.5 10 4.7 10 10.5z" stroke="#000" stroke-width="2" fill="#fff"/><use xlink:href="#a" transform="matrix(1,0,0,1,465,354.5) translate(2.1666666666666665 9.626666666666667)"/><path d="M480 311c0 5.52-4.48 10-10 10s-10-4.48-10-10 4.48-10 10-10 10 4.48 10 10z" stroke="#000" stroke-width="2" fill="#fff"/><use xlink:href="#b" transform="matrix(1,0,0,1,465,306) translate(0.9011111111111108 11.231111111111112)"/><path d="M321 311h68.38c.08 0 .13-.06.13-.13s.07-.13.14-.13h50.88" stroke="#000" stroke-width="2" fill="none"/><path d="M321.03 312H320v-2h1.03z"/><path d="M455.8 310.74l-14.28 4.64v-9.27z" stroke="#000" stroke-width="2"/><path d="M321 360h119.5" stroke="#000" stroke-width="2" fill="none"/><path d="M321.03 361H320v-2h1.03z"/><path d="M455.76 360l-14.27 4.64v-9.28z" stroke="#000" stroke-width="2"/><path d="M560 345c0-2.76 2.24-5 5-5h30c2.76 0 5 2.24 5 5v30c0 2.76-2.24 5-5 5h-30c-2.76 0-5-2.24-5-5z" stroke="#000" stroke-opacity="0" stroke-width="2" fill="#fff" fill-opacity="0"/><use xlink:href="#c" transform="matrix(1,0,0,1,565,345) translate(0 19.482421875)"/><path d="M480 409c0 5.52-4.48 10-10 10s-10-4.48-10-10 4.48-10 10-10 10 4.48 10 10z" stroke="#000" stroke-width="2" fill="#fff"/><use xlink:href="#b" transform="matrix(1,0,0,1,465,404) translate(0.9011111111111108 11.231111111111112)"/><path d="M280 296c0-2.76 2.24-5 5-5h30c2.76 0 5 2.24 5 5v30c0 2.76-2.24 5-5 5h-30c-2.76 0-5-2.24-5-5z" stroke="#000" stroke-opacity="0" stroke-width="2" fill="#fff" fill-opacity="0"/><use xlink:href="#d" transform="matrix(1,0,0,1,285,296) translate(9.11349826388889 21.297743055555554)"/><path d="M300 302c0-2.76 2.24-5 5-5h30c2.76 0 5 2.24 5 5v24c0 2.76-2.24 5-5 5h-30c-2.76 0-5-2.24-5-5z" stroke="#000" stroke-opacity="0" stroke-width="2" fill="#fff" fill-opacity="0"/><use xlink:href="#e" transform="matrix(1,0,0,1,305,302) translate(0 16.595920138888893)"/><path d="M280 345c0-2.76 2.24-5 5-5h30c2.76 0 5 2.24 5 5v30c0 2.76-2.24 5-5 5h-30c-2.76 0-5-2.24-5-5z" stroke="#000" stroke-opacity="0" stroke-width="2" fill="#fff" fill-opacity="0"/><use xlink:href="#d" transform="matrix(1,0,0,1,285,345) translate(9.11349826388889 21.297743055555554)"/><path d="M300 351c0-2.76 2.24-5 5-5h30c2.76 0 5 2.24 5 5v24c0 2.76-2.24 5-5 5h-30c-2.76 0-5-2.24-5-5z" stroke="#000" stroke-opacity="0" stroke-width="2" fill="#fff" fill-opacity="0"/><use xlink:href="#f" transform="matrix(1,0,0,1,305,351) translate(0 16.595920138888893)"/><path d="M280 394c0-2.76 2.24-5 5-5h30c2.76 0 5 2.24 5 5v30c0 2.76-2.24 5-5 5h-30c-2.76 0-5-2.24-5-5z" stroke="#000" stroke-opacity="0" stroke-width="2" fill="#fff" fill-opacity="0"/><use xlink:href="#d" transform="matrix(1,0,0,1,285,394) translate(9.11349826388889 21.297743055555554)"/><path d="M300 400c0-2.76 2.24-5 5-5h30c2.76 0 5 2.24 5 5v24c0 2.76-2.24 5-5 5h-30c-2.76 0-5-2.24-5-5z" stroke="#000" stroke-opacity="0" stroke-width="2" fill="#fff" fill-opacity="0"/><use xlink:href="#g" transform="matrix(1,0,0,1,305,400) translate(0 16.595920138888893)"/><path d="M321 409h119.5" stroke="#000" stroke-width="2" fill="none"/><path d="M321.03 410H320v-2h1.03z"/><path d="M455.76 409l-14.27 4.64v-9.28z" stroke="#000" stroke-width="2"/><defs><path d="M35-175v-72h350v72H35" id="h"/><use transform="matrix(0.013333333333333334,0,0,0.013333333333333334,0,0)" xlink:href="#h" id="a"/><path d="M247-131v-194H43v-33h204v-194h33v194h203v33H280v194h-33" id="i"/><use transform="matrix(0.015555555555555557,0,0,0.015555555555555557,0,0)" xlink:href="#i" id="b"/><path d="M139-1075c140-43 293-108 414-170l37 35v1067c17 46 70 53 126 69 32 9 74 15 124 21V0H170v-53c105-14 192-24 257-67 10-6 13-16 13-23-2-285 6-579-3-859-2-69-96-49-164-42-31 3-69 11-113 20" id="j"/><use transform="matrix(0.0087890625,0,0,0.0087890625,0,0)" xlink:href="#j" id="c"/><path d="M625-894c93-10 183-41 260-66l30 39c3 254-10 522 5 768 3 45 10 60 59 53 19-3 46-12 80-27l10 45C999-41 935 10 850 30c-23 0-42-15-57-46s-24-81-28-150C662-71 581 30 408 30 229 30 171-92 170-279c-1-167 6-345-3-507-4-64-60-59-126-68v-40c97-10 173-35 251-66l28 39v587c2 135 23 244 153 244 143 0 210-92 292-172-2-172 9-357-5-521-6-63-63-67-135-71v-40" id="k"/><use transform="matrix(0.010850694444444444,0,0,0.010850694444444444,0,0)" xlink:href="#k" id="d"/><use transform="matrix(0.007595486111111112,0,0,0.007595486111111112,0,0)" xlink:href="#j" id="e"/><path d="M535-1235c212-4 338 160 275 373-64 217-223 354-360 525-52 65-115 136-184 216h418c81-12 89-97 102-178l50 12L821 0H127L98-74c171-201 325-369 463-574 57-86 107-151 107-276 0-137-63-221-201-221-116 0-176 96-187 211-40 21-70 45-128 49l-27-30c18-150 138-236 259-289 49-21 100-31 151-31" id="l"/><use transform="matrix(0.007595486111111112,0,0,0.007595486111111112,0,0)" xlink:href="#l" id="f"/><path d="M555-698c161 29 270 138 270 317 0 259-155 411-419 411-158 0-251-69-338-149l34-67c85 60 155 116 291 116 173 0 272-103 272-278 0-177-97-277-276-275-19 0-27 3-47 7l-14-60c131-37 237-83 270-198 40-139-32-271-172-271-101 0-167 62-156 172-45 22-78 35-139 39l-27-31c19-128 125-199 234-243 45-19 94-27 145-27 180 0 285 104 285 277 0 142-108 208-213 260" id="m"/><use transform="matrix(0.007595486111111112,0,0,0.007595486111111112,0,0)" xlink:href="#m" id="g"/></defs></g></svg>